<svg xmlns="http://www.w3.org/2000/svg" xmlns:xlink="http://www.w3.org/1999/xlink" width="352.339294" height="65.982430" viewBox="0 0 352.339 65.9824"><path d="M3.60352 41L18.4658 41L18.4658 38.1523L6.95215 38.1523L6.95215 14.6152L3.60352 14.6152L3.60352 41ZM28.116 41.4658C30.8143 41.4658 32.7566 40.0684 34.5936 37.9414L34.7078 37.9414L34.9539 41L37.6961 41L37.6961 21.4531L34.4178 21.4531L34.4178 35.3135C32.5457 37.6514 31.1395 38.627 29.1268 38.627C26.534 38.627 25.4529 37.0801 25.4529 33.4414L25.4529 21.4531L22.1746 21.4531L22.1746 33.8369C22.1746 38.8027 24.0115 41.4658 28.116 41.4658ZM51.9807 41.4658C54.3274 41.4658 56.5598 40.5693 58.2825 38.9873L56.8762 36.79C55.6545 37.9062 54.0725 38.7324 52.2708 38.7324C48.676 38.7324 46.2239 35.7441 46.2239 31.2441C46.2239 26.7441 48.8167 23.6855 52.3411 23.6855C53.9319 23.6855 55.1184 24.4062 56.2698 25.4521L57.9573 23.2549C56.5598 22.0244 54.7932 20.9521 52.2356 20.9521C47.2346 20.9521 42.8049 24.7314 42.8049 31.2441C42.8049 37.7217 46.804 41.4658 51.9807 41.4658ZM62.6055 41L65.8399 41L65.8399 35.8496L69.5137 31.5693L75.2442 41L78.8037 41L71.3858 29.3018L77.9424 21.4531L74.3037 21.4531L65.919 31.7803L65.8399 31.7803L65.8399 12.3477L62.6055 12.3477L62.6055 41ZM82.8027 49.4199C86.6875 49.4199 88.7002 46.4756 90.0713 42.6172L97.4541 21.4531L94.2461 21.4531L90.7568 32.3252C90.2119 34.0479 89.6406 36.0342 89.0957 37.792L88.9199 37.792C88.3047 36.0342 87.6279 34.0127 87.0478 32.3252L83.0488 21.4531L79.6299 21.4531L87.4785 41.0352L87.0478 42.5117C86.2568 44.9199 84.8506 46.7217 82.6181 46.7217C82.1172 46.7217 81.5371 46.5459 81.1416 46.3965L80.5 49.0244C81.1064 49.2793 81.8623 49.4199 82.8027 49.4199ZM101.524 41L104.872 41L104.872 28.5459L117.177 28.5459L117.177 41L120.49 41L120.49 14.6152L117.177 14.6152L117.177 25.6631L104.872 25.6631L104.872 14.6152L101.524 14.6152L101.524 41ZM133.128 41.4658C135.826 41.4658 137.769 40.0684 139.606 37.9414L139.72 37.9414L139.966 41L142.708 41L142.708 21.4531L139.43 21.4531L139.43 35.3135C137.558 37.6514 136.151 38.627 134.139 38.627C131.546 38.627 130.465 37.0801 130.465 33.4414L130.465 21.4531L127.187 21.4531L127.187 33.8369C127.187 38.8027 129.024 41.4658 133.128 41.4658ZM153.794 41.4658C156.202 41.4658 158.399 40.209 160.271 38.6621L160.377 38.6621L160.667 41L163.365 41L163.365 28.9766C163.365 24.1514 161.352 20.9521 156.597 20.9521C153.468 20.9521 150.7 22.3496 148.898 23.501L150.19 25.7686C151.737 24.7314 153.794 23.6855 156.061 23.6855C159.26 23.6855 160.095 26.0938 160.095 28.6162C151.772 29.5479 148.072 31.6748 148.072 35.9199C148.072 39.4531 150.515 41.4658 153.794 41.4658ZM154.725 38.8379C152.783 38.8379 151.271 37.9414 151.271 35.709C151.271 33.1865 153.503 31.5693 160.095 30.7783L160.095 36.2451C158.188 37.9414 156.632 38.8379 154.725 38.8379ZM169.598 41L172.876 41L172.876 26.8145C174.853 24.8369 176.216 23.8262 178.237 23.8262C180.83 23.8262 181.946 25.373 181.946 29.0469L181.946 41L185.216 41L185.216 28.6162C185.216 23.6152 183.352 20.9521 179.248 20.9521C176.576 20.9521 174.563 22.4199 172.691 24.2568L172.586 24.2568L172.296 21.4531L169.598 21.4531L169.598 41ZM198.177 50C204.232 50 208.047 46.8711 208.047 43.2324C208.047 40.0244 205.779 38.5918 201.244 38.5918L197.421 38.5918C194.793 38.5918 194.002 37.7217 194.002 36.4648C194.002 35.3838 194.547 34.7334 195.267 34.127C196.129 34.5576 197.21 34.8037 198.177 34.8037C202.14 34.8037 205.304 32.1758 205.304 28.001C205.304 26.3135 204.663 24.8721 203.722 23.9756L207.721 23.9756L207.721 21.4531L200.919 21.4531C200.233 21.1982 199.258 20.9521 198.177 20.9521C194.221 20.9521 190.838 23.6504 190.838 27.9307C190.838 30.2686 192.095 32.1406 193.395 33.1865L193.395 33.3359C192.385 34.0479 191.198 35.3486 191.198 36.9658C191.198 38.5127 191.954 39.5586 193 40.1738L193 40.3145C191.163 41.501 190.082 43.0918 190.082 44.7441C190.082 48.1279 193.395 50 198.177 50ZM198.177 32.5801C195.909 32.5801 194.002 30.7783 194.002 27.9307C194.002 25.0479 195.874 23.3604 198.177 23.3604C200.488 23.3604 202.316 25.0918 202.316 27.9307C202.316 30.7783 200.409 32.5801 198.177 32.5801ZM198.651 47.7676C195.083 47.7676 192.956 46.3965 192.956 44.3135C192.956 43.1621 193.571 42.0107 194.977 41C195.839 41.2197 196.779 41.3252 197.5 41.3252L200.884 41.3252C203.476 41.3252 204.874 41.9316 204.874 43.7334C204.874 45.79 202.395 47.7676 198.651 47.7676Z" fill="#43ABFF" fill-opacity="1.000000" transform="matrix(1 0 0 1 5.99122 5.99121)"/><path d="M221.793 26.5684L214.235 26.5684L214.235 19.0361L221.793 19.0361L221.793 26.5684ZM214.235 37.5811L214.235 28.9414L221.793 28.9414L221.793 37.5811L214.235 37.5811ZM217.258 10.792C217.012 12.4883 216.362 14.8965 215.817 16.6279L211.791 16.6279L211.791 42.8369L214.235 42.8369L214.235 39.9893L224.245 39.9893L224.245 16.6279L218.269 16.6279C218.884 15.0811 219.526 13.1035 220.141 11.3369L217.258 10.792ZM241.85 16.5225L231.083 16.5225C231.698 14.8262 232.199 13.1035 232.63 11.3369L230.072 10.7217C228.921 15.6523 226.979 20.627 224.571 23.791C225.142 24.1514 226.293 24.8721 226.768 25.3027C228.025 23.6152 229.141 21.418 230.152 19.001L239.292 19.001C238.826 33.3359 238.281 38.8027 237.095 40.0684C236.735 40.5342 236.339 40.6045 235.618 40.6045C234.792 40.6045 232.63 40.6045 230.292 40.3848C230.793 41.1406 231.118 42.2217 231.189 43.0127C233.21 43.127 235.258 43.1973 236.524 43.0479C237.745 42.9424 238.572 42.6172 239.363 41.6152C240.804 39.8486 241.27 34.3027 241.85 17.8848L241.85 16.5225ZM236.163 32.7207C235.012 30.5938 232.525 27.1396 230.512 24.582L228.42 25.8037C230.398 28.3965 232.815 31.9648 233.896 34.127L236.163 32.7207ZM250.024 17.709L275.037 17.709L275.037 22.4199L277.744 22.4199L277.744 15.2568L264.816 15.2568C264.315 13.9648 263.374 12.0928 262.618 10.6865L259.85 11.4775C260.421 12.5938 261.072 14.0352 261.616 15.2568L247.396 15.2568L247.396 23.29L250.024 23.29L250.024 17.709ZM264.816 21.708C268.49 23.6152 273.35 26.4189 275.723 28.1504L277.49 26.0938C274.967 24.4062 270.072 21.708 266.512 19.9766L264.816 21.708ZM249.303 28.4756C253.478 26.6738 257.398 23.9756 260.245 21.4531L258.408 19.8711C255.64 22.2441 251.966 24.6523 247.712 26.1641L249.303 28.4756ZM263.884 40.1035L263.884 31.0684L274.141 31.0684L274.141 28.6162L251.14 28.6162L251.14 31.0684L261.107 31.0684L261.107 40.1035L247.431 40.1035L247.431 42.582L277.78 42.582L277.78 40.1035L263.884 40.1035ZM283.967 43.7686L286.665 43.7686L286.665 18.9658L283.967 18.9658L283.967 43.7686ZM284.512 12.6289C286.129 14.2197 288.001 16.4521 288.827 17.8848L290.99 16.4521C290.163 14.9756 288.212 12.8486 286.56 11.3721L284.512 12.6289ZM294.224 30.3477L302.793 30.3477L302.793 35.1641L294.224 35.1641L294.224 30.3477ZM294.224 23.3252L302.793 23.3252L302.793 28.1152L294.224 28.1152L294.224 23.3252ZM291.816 37.3965L305.316 37.3965L305.316 21.0928L291.816 21.0928L291.816 37.3965ZM313.27 12.9189L293.257 12.9189L293.257 15.4414L310.536 15.4414L310.536 40.499C310.536 40.9648 310.396 41.1406 309.921 41.1406C309.526 41.1406 308.014 41.1758 306.502 41.1055C306.863 41.8262 307.223 42.9072 307.372 43.6279C309.561 43.6279 311.073 43.5928 312.013 43.127C312.945 42.6963 313.27 42.0107 313.27 40.499L313.27 12.9189Z" fill="#43ABFF" fill-opacity="1.000000" transform="matrix(1 0 0 1 5.99122 5.99121)"/></svg>